<svg xmlns="http://www.w3.org/2000/svg" width="620" height="148" viewBox="0 0 620 148">
  <metadata><?xpacket begin="﻿" id="W5M0MpCehiHzreSzNTczkc9d"?>
<x:xmpmeta xmlns:x="adobe:ns:meta/" x:xmptk="Adobe XMP Core 5.6-c138 79.159824, 2016/09/14-01:09:01        ">
   <rdf:RDF xmlns:rdf="http://www.w3.org/1999/02/22-rdf-syntax-ns#">
      <rdf:Description rdf:about=""/>
   </rdf:RDF>
</x:xmpmeta>
                                                                                                             
<?xpacket end="w"?></metadata>
<defs>
    <style>
      .cls-1 {
        fill: #191919;
      }

      .cls-1, .cls-2, .cls-3 {
        fill-rule: evenodd;
      }

      .cls-2 {
        fill: #e65454;
      }

      .cls-3 {
        fill: #fff;
      }
    </style>
  </defs>
  <path id="YONA" class="cls-1" d="M54.911,84.551v44.371H87.719V84.551l41.191-61.57H92.743L71.354,58.72,50.01,22.981H13.647Zm78.842,22.4a44.667,44.667,0,0,0,19.042,18.067q11.743,5.709,29.665,5.709,17.632,0,29.449-6.613a44.561,44.561,0,0,0,18.066-18.5q6.25-11.886,6.251-30.46,0-25.582-14.309-39.782t-40.757-14.2q-25.8,0-40.252,14.453t-14.454,40.4Q126.453,94.6,133.752,106.953Zm31.436-53.982q6-7.009,15.9-7.01,10.333,0,16.368,6.9t6.035,21.86q0,17.777-5.782,24.643t-16.332,6.865q-10.262,0-16.223-7.009T159.19,76.168Q159.19,59.981,165.188,52.971Zm88.887,75.951H284.86V70.753l39.674,58.169h30.857V22.981H324.534V81.592L284.643,22.981H254.075V128.922Zm192.054,0H480.41L440.6,22.981H404.893L365.075,128.922H398.5l5.163-17.488h37.166Zm-35.355-40.4,11.571-38.084,11.694,38.084H410.774Z"/>
  <path class="cls-2" d="M472,44H606.005v61H493.457Z"/>
  <path id="CMS" class="cls-3" d="M522.582,80.078a4.993,4.993,0,0,1-6.913-.3q-1.264-1.545-1.265-5.71a8.984,8.984,0,0,1,1.06-4.933A4.887,4.887,0,0,1,521.6,67.5a4.465,4.465,0,0,1,1.59,1.367,5.882,5.882,0,0,1,.752,1.675l6.835-1.521a11.248,11.248,0,0,0-4.024-5.879,12.708,12.708,0,0,0-7.443-1.914q-6.05,0-9.357,3.339t-3.306,9.555a14.156,14.156,0,0,0,1.879,7.651,10.581,10.581,0,0,0,4.469,4.176,16.108,16.108,0,0,0,6.674,1.187,13.653,13.653,0,0,0,5.546-.974,9.349,9.349,0,0,0,3.648-2.888,12.51,12.51,0,0,0,2.154-4.768l-6.785-2.051A7.723,7.723,0,0,1,522.582,80.078Zm12.108,6.631h6.34V67.6l4.877,19.106h5.739L556.531,67.6V86.708h6.34V61.655H552.7L548.8,76.9l-3.927-15.244H534.69V86.708Zm34.556-2.034q2.46,2.461,8.852,2.461a15.055,15.055,0,0,0,6.033-1.051A8.343,8.343,0,0,0,587.857,83a7.948,7.948,0,0,0,1.333-4.443,7.046,7.046,0,0,0-1-3.709,7.649,7.649,0,0,0-3.2-2.777,32.511,32.511,0,0,0-7.272-2.213,6.331,6.331,0,0,1-2.6-.923,1.394,1.394,0,0,1-.564-1.077,1.753,1.753,0,0,1,.683-1.393,3.106,3.106,0,0,1,2.034-.573,3.409,3.409,0,0,1,3.794,3.23l7.3-.427a7.712,7.712,0,0,0-3-5.682q-2.522-1.786-7.323-1.786a15.721,15.721,0,0,0-6.161.983,7.427,7.427,0,0,0-3.367,2.7,6.571,6.571,0,0,0-1.119,3.649,6.118,6.118,0,0,0,2.187,4.836q2.17,1.9,7.264,3.042a9.9,9.9,0,0,1,3.965,1.453,2.3,2.3,0,0,1,.854,1.743,2.33,2.33,0,0,1-.9,1.8,3.784,3.784,0,0,1-2.555.778,4.092,4.092,0,0,1-3.418-1.521,5.612,5.612,0,0,1-.974-2.734l-7.366.462A9.7,9.7,0,0,0,569.246,84.675Z"/>
</svg>
